<svg xmlns="http://www.w3.org/2000/svg" viewBox="0 0 100 100"><defs><style>.cls-1{fill:#ffe174;}.cls-2{fill:#fff;}.cls-3,.cls-4{fill:#2e3192;}.cls-3{fill-rule:evenodd;}</style></defs><g id="Layer_2" data-name="Layer 2"><g id="Layer_1-2" data-name="Layer 1"><circle class="cls-1" cx="50" cy="50" r="48.5"/><path class="cls-2" d="M50,3A47,47,0,1,1,3,50,47,47,0,0,1,50,3m0-3a50,50,0,1,0,50,50A50,50,0,0,0,50,0Z"/><path class="cls-3" d="M50.51,19.42c2.2,1.11,2.59,3.5,2.59,5V75.62c0,1.46-.4,3.85-2.59,5s-4.49-.15-5.59-1.14L28.13,64.35H22.08a6.21,6.21,0,0,1-6.21-6.21V42.05a6.21,6.21,0,0,1,6.21-6.21h6l16.8-15.28C46,19.58,48.19,18.25,50.51,19.42ZM46.9,27.15,31.4,41.24a3.09,3.09,0,0,1-2.08.81H22.08V58.14h7.24a3.12,3.12,0,0,1,2.07.8L46.9,72.88Z"/><path class="cls-4" d="M62.52,27.45a3.11,3.11,0,0,1,3.83-2.16c10.37,2.9,17.78,13,17.78,24.71S76.72,71.81,66.35,74.71a3.1,3.1,0,1,1-1.67-6C72.15,66.64,77.92,59.17,77.92,50S72.15,33.36,64.68,31.27A3.1,3.1,0,0,1,62.52,27.45Z"/><path class="cls-4" d="M63.3,37.72a3.11,3.11,0,0,0-1.78,6c2,.6,4,3,4,6.33s-2,5.73-4,6.34a3.1,3.1,0,0,0,1.78,5.94c5.1-1.52,8.42-6.67,8.42-12.28S68.4,39.24,63.3,37.72Z"/></g></g></svg>