<svg xmlns="http://www.w3.org/2000/svg" viewBox="0 0 100 100"><defs><style>.cls-1{fill:#ee6969;}.cls-2{fill:#fff;}.cls-3,.cls-4{fill:#2e3192;}.cls-3{fill-rule:evenodd;}</style></defs><g id="Layer_2" data-name="Layer 2"><g id="Layer_1-2" data-name="Layer 1"><circle class="cls-1" cx="50" cy="50" r="48.5"/><path class="cls-2" d="M50,3A47,47,0,1,1,3,50,47,47,0,0,1,50,3m0-3a50,50,0,1,0,50,50A50,50,0,0,0,50,0Z"/><path class="cls-3" d="M53.25,23.15c0-1.53-.41-4-2.71-5.21s-4.72.16-5.87,1.2l-17.61,16H20.73a6.51,6.51,0,0,0-6.51,6.5V58.54A6.51,6.51,0,0,0,20.73,65h6.34l17.6,15.82c1.16,1,3.43,2.42,5.87,1.19s2.71-3.66,2.71-5.2ZM30.51,40.82,46.75,26.05V74L30.49,59.37a3.23,3.23,0,0,0-2.17-.83H20.73V41.66h7.59A3.27,3.27,0,0,0,30.51,40.82Z"/><path class="cls-4" d="M60.71,37.94a3.25,3.25,0,0,1,4.6,0l7.46,7.46,7.46-7.46a3.25,3.25,0,1,1,4.59,4.6L77.37,50l7.45,7.46a3.25,3.25,0,1,1-4.59,4.6L72.77,54.6l-7.46,7.46a3.25,3.25,0,0,1-4.6-4.6L68.17,50l-7.46-7.46A3.25,3.25,0,0,1,60.71,37.94Z"/></g></g></svg>